<mxfile host="app.diagrams.net" modified="2024-06-16T06:58:58.010Z" agent="Mozilla/5.0 (Macintosh; Intel Mac OS X 10_15_7) AppleWebKit/605.1.15 (KHTML, like Gecko) Version/17.5 Safari/605.1.15" etag="HL5AZyptXWUuXLwtCnE0" version="24.5.4" type="device">
  <diagram name="Page-1" id="Ld6vLscyz_kYS2x1lakn">
    <mxGraphModel dx="995" dy="623" grid="1" gridSize="10" guides="1" tooltips="1" connect="1" arrows="1" fold="1" page="1" pageScale="1" pageWidth="827" pageHeight="1169" background="none" math="0" shadow="0">
      <root>
        <mxCell id="0" />
        <mxCell id="1" parent="0" />
        <mxCell id="-Rfk0HA4mvXy7QraKLiD-2" value="C" style="rounded=1;whiteSpace=wrap;html=1;glass=0;gradientColor=none;strokeWidth=2;labelPosition=center;verticalLabelPosition=middle;align=center;verticalAlign=bottom;fontStyle=1;fontFamily=Courier New;fontSize=12;container=0;" vertex="1" parent="1">
          <mxGeometry x="240" y="320" width="51.42857142857142" height="210" as="geometry" />
        </mxCell>
        <mxCell id="-Rfk0HA4mvXy7QraKLiD-3" value="D" style="rounded=1;whiteSpace=wrap;html=1;glass=0;gradientColor=none;strokeWidth=2;fontStyle=1;fontFamily=Courier New;fontSize=12;container=0;verticalAlign=bottom;" vertex="1" parent="1">
          <mxGeometry x="291.42857142857144" y="320" width="51.42857142857142" height="210" as="geometry" />
        </mxCell>
        <mxCell id="-Rfk0HA4mvXy7QraKLiD-4" value="E" style="rounded=1;whiteSpace=wrap;html=1;glass=0;gradientColor=none;strokeWidth=2;fontStyle=1;fontFamily=Courier New;fontSize=12;container=0;verticalAlign=bottom;" vertex="1" parent="1">
          <mxGeometry x="342.85714285714283" y="320" width="51.42857142857142" height="210" as="geometry" />
        </mxCell>
        <mxCell id="-Rfk0HA4mvXy7QraKLiD-5" value="F" style="rounded=1;whiteSpace=wrap;html=1;glass=0;gradientColor=none;strokeWidth=2;fontStyle=1;fontFamily=Courier New;fontSize=12;container=0;verticalAlign=bottom;" vertex="1" parent="1">
          <mxGeometry x="394.2857142857143" y="320" width="51.42857142857142" height="210" as="geometry" />
        </mxCell>
        <mxCell id="-Rfk0HA4mvXy7QraKLiD-6" value="G" style="rounded=1;whiteSpace=wrap;html=1;glass=0;gradientColor=none;strokeWidth=2;fontStyle=1;fontFamily=Courier New;fontSize=12;container=0;verticalAlign=bottom;" vertex="1" parent="1">
          <mxGeometry x="445.71428571428567" y="320" width="51.42857142857142" height="210" as="geometry" />
        </mxCell>
        <mxCell id="-Rfk0HA4mvXy7QraKLiD-7" value="A" style="rounded=1;whiteSpace=wrap;html=1;glass=0;gradientColor=none;strokeWidth=2;fontStyle=1;fontFamily=Courier New;fontSize=12;container=0;verticalAlign=bottom;" vertex="1" parent="1">
          <mxGeometry x="497.1428571428571" y="320" width="51.42857142857142" height="210" as="geometry" />
        </mxCell>
        <mxCell id="-Rfk0HA4mvXy7QraKLiD-8" value="B" style="rounded=1;whiteSpace=wrap;html=1;glass=0;gradientColor=none;strokeWidth=2;fontStyle=1;fontFamily=Courier New;fontSize=12;container=0;verticalAlign=bottom;" vertex="1" parent="1">
          <mxGeometry x="548.5714285714286" y="320" width="51.42857142857142" height="210" as="geometry" />
        </mxCell>
        <mxCell id="-Rfk0HA4mvXy7QraKLiD-11" value="C# &lt;font style=&quot;font-size: 12px;&quot;&gt;hoặc&lt;/font&gt; Db" style="rounded=1;whiteSpace=wrap;html=1;glass=0;gradientColor=none;strokeWidth=2;fillColor=#171717;gradientDirection=south;fontColor=#FFFFFF;labelPosition=center;verticalLabelPosition=middle;align=center;verticalAlign=bottom;fontStyle=1;fontFamily=Courier New;fontSize=12;container=0;" vertex="1" parent="1">
          <mxGeometry x="276" y="320" width="30.857142857142854" height="136.5" as="geometry" />
        </mxCell>
        <mxCell id="-Rfk0HA4mvXy7QraKLiD-12" value="D#&lt;div&gt;hoặc&lt;/div&gt;&lt;div&gt;Eb&lt;/div&gt;" style="rounded=1;whiteSpace=wrap;html=1;glass=0;gradientColor=none;strokeWidth=2;fillColor=#171717;gradientDirection=south;fontStyle=1;fontFamily=Courier New;fontSize=12;container=0;verticalAlign=bottom;fontColor=#FFFFFF;" vertex="1" parent="1">
          <mxGeometry x="327.42857142857144" y="320" width="30.857142857142854" height="136.5" as="geometry" />
        </mxCell>
        <mxCell id="-Rfk0HA4mvXy7QraKLiD-14" value="F#&lt;div&gt;hoặc&lt;/div&gt;&lt;div&gt;Gb&lt;/div&gt;" style="rounded=1;whiteSpace=wrap;html=1;glass=0;gradientColor=none;strokeWidth=2;fillColor=#171717;gradientDirection=south;fontStyle=1;fontFamily=Courier New;fontSize=12;container=0;verticalAlign=bottom;fontColor=#FFFFFF;" vertex="1" parent="1">
          <mxGeometry x="430.2857142857143" y="320" width="30.857142857142854" height="136.5" as="geometry" />
        </mxCell>
        <mxCell id="-Rfk0HA4mvXy7QraKLiD-15" value="G#&lt;div&gt;hoặc&lt;/div&gt;&lt;div&gt;Ab&lt;/div&gt;" style="rounded=1;whiteSpace=wrap;html=1;glass=0;gradientColor=none;strokeWidth=2;fillColor=#171717;gradientDirection=south;fontStyle=1;fontFamily=Courier New;fontSize=12;container=0;verticalAlign=bottom;fontColor=#FFFFFF;" vertex="1" parent="1">
          <mxGeometry x="481.71428571428567" y="320" width="30.857142857142854" height="136.5" as="geometry" />
        </mxCell>
        <mxCell id="-Rfk0HA4mvXy7QraKLiD-16" value="A#&lt;div&gt;hoặc&lt;/div&gt;&lt;div&gt;Bb&lt;/div&gt;" style="rounded=1;whiteSpace=wrap;html=1;glass=0;gradientColor=none;strokeWidth=2;fillColor=#171717;gradientDirection=south;fontStyle=1;fontFamily=Courier New;fontSize=12;container=0;verticalAlign=bottom;fontColor=#FFFFFF;" vertex="1" parent="1">
          <mxGeometry x="534.1714285714286" y="320" width="30.857142857142854" height="136.5" as="geometry" />
        </mxCell>
      </root>
    </mxGraphModel>
  </diagram>
</mxfile>
